<svg xmlns="http://www.w3.org/2000/svg" viewBox="0 0 512 512" style="height: 512px; width: 512px;"><defs><radialGradient id="delapouite-warlock-eye-gradient-0"><stop offset="0%" stop-color="#ed1e1e" stop-opacity="1"></stop><stop offset="100%" stop-color="#bc1515" stop-opacity="1"></stop></radialGradient></defs><path d="M0 0h512v512H0z" fill="url(#delapouite-warlock-eye-gradient-0)"></path><g class="" transform="translate(0,0)" style=""><g transform="translate(51.2, 51.2) scale(0.8, 0.8) rotate(0, 256, 256) skewX(0) skewY(0)"><path d="M256 16L224 128L256 160L288 128L256 16Z" class="" fill="#b57204" fill-opacity="1"></path><path d="M64 96L96 176L160 192L64 96Z" class="" fill="#b57204" fill-opacity="1"></path><path d="M448 96L352 192L416 176L448 96Z" class="" fill="#b57204" fill-opacity="1"></path><path d="M256 176L192 224L64 256C144 272 192 352 256 384C320 352 368.476 273.787 448 256L320 227.69L256 176Z" class="" fill="#6a1616" fill-opacity="1"></path><path d="M216.488 228.682L244.83 237.545L237.38 258.5L256 310.895L274.62 258.5L267.17 237.545L295.512 228.682C310.435 239.652 320 256.712 320 275.965C320 309.237 291.47 336 256 336C220.53 336 192 309.237 192 275.965C192 256.711 201.565 239.651 216.488 228.682Z" class="" fill="#ffffff" fill-opacity="1"></path><path d="M96 336L32 384L16 448L48 416L112 368C112 368 96 340.39 96 336Z" class="" fill="#b57204" fill-opacity="1"></path><path d="M416 336L400 368L464 416L496 448L480 384L416 336Z" class="" fill="#b57204" fill-opacity="1"></path><path d="M144 400L128 464L176 416L144 400Z" class="" fill="#b57204" fill-opacity="1"></path><path d="M256 400L208 416L256 496L304 416L256 400Z" class="" fill="#b57204" fill-opacity="1"></path><path d="M368 400L336 416L384 464L368 400Z" class="selected" fill="#b57204" fill-opacity="1"></path></g></g></svg>